<svg xmlns="http://www.w3.org/2000/svg" xmlns:xlink="http://www.w3.org/1999/xlink" width="500" zoomAndPan="magnify" viewBox="0 0 375 374.999991" height="500" preserveAspectRatio="xMidYMid meet" version="1.0"><defs><g/><clipPath id="869082a3c6"><path d="M 140.625 99.738281 L 229 99.738281 L 229 188 L 140.625 188 Z M 140.625 99.738281 " clip-rule="nonzero"/></clipPath><clipPath id="1262870006"><path d="M 217 176 L 234.375 176 L 234.375 193.488281 L 217 193.488281 Z M 217 176 " clip-rule="nonzero"/></clipPath></defs><rect x="-37.5" width="450" fill="#ffffff" y="-37.499999" height="449.999989" fill-opacity="1"/><rect x="-37.5" width="450" fill="#ffffff" y="-37.499999" height="449.999989" fill-opacity="1"/><g clip-path="url(#869082a3c6)"><path fill="#145da0" d="M 140.625 99.738281 L 140.625 187.152344 L 210.933594 187.152344 L 210.933594 170.046875 L 157.730469 170.046875 L 157.730469 116.84375 L 210.933594 116.84375 L 210.933594 170.046875 L 228.035156 170.046875 L 228.035156 99.738281 Z M 140.625 99.738281 " fill-opacity="1" fill-rule="nonzero"/></g><g clip-path="url(#1262870006)"><path fill="#145da0" d="M 217.269531 176.386719 L 234.375 176.386719 L 234.375 193.488281 L 217.269531 193.488281 Z M 217.269531 176.386719 " fill-opacity="1" fill-rule="nonzero"/></g><g fill="#000000" fill-opacity="1"><g transform="translate(141.674363, 270.276103)"><g><path d="M 6.96875 -2.375 C 6.96875 -1.539062 6.65625 -0.910156 6.03125 -0.484375 C 5.414062 -0.0546875 4.582031 0.15625 3.53125 0.15625 C 2.9375 0.15625 2.421875 0.109375 1.984375 0.015625 C 1.546875 -0.078125 1.160156 -0.210938 0.828125 -0.390625 L 0.828125 -1.671875 C 1.171875 -1.492188 1.585938 -1.332031 2.078125 -1.1875 C 2.566406 -1.050781 3.0625 -0.984375 3.5625 -0.984375 C 4.28125 -0.984375 4.800781 -1.097656 5.125 -1.328125 C 5.445312 -1.554688 5.609375 -1.863281 5.609375 -2.25 C 5.609375 -2.457031 5.546875 -2.644531 5.421875 -2.8125 C 5.304688 -2.988281 5.097656 -3.160156 4.796875 -3.328125 C 4.492188 -3.503906 4.054688 -3.703125 3.484375 -3.921875 C 2.929688 -4.128906 2.457031 -4.34375 2.0625 -4.5625 C 1.664062 -4.78125 1.359375 -5.035156 1.140625 -5.328125 C 0.921875 -5.628906 0.8125 -6.015625 0.8125 -6.484375 C 0.8125 -7.210938 1.109375 -7.773438 1.703125 -8.171875 C 2.304688 -8.566406 3.085938 -8.765625 4.046875 -8.765625 C 4.566406 -8.765625 5.054688 -8.710938 5.515625 -8.609375 C 5.972656 -8.503906 6.398438 -8.363281 6.796875 -8.1875 L 6.3125 -7.0625 C 5.945312 -7.21875 5.566406 -7.347656 5.171875 -7.453125 C 4.773438 -7.554688 4.367188 -7.609375 3.953125 -7.609375 C 3.367188 -7.609375 2.925781 -7.515625 2.625 -7.328125 C 2.320312 -7.140625 2.171875 -6.882812 2.171875 -6.5625 C 2.171875 -6.320312 2.238281 -6.117188 2.375 -5.953125 C 2.519531 -5.796875 2.753906 -5.632812 3.078125 -5.46875 C 3.398438 -5.3125 3.835938 -5.132812 4.390625 -4.9375 C 4.929688 -4.726562 5.394531 -4.515625 5.78125 -4.296875 C 6.164062 -4.085938 6.457031 -3.828125 6.65625 -3.515625 C 6.863281 -3.210938 6.96875 -2.832031 6.96875 -2.375 Z M 6.96875 -2.375 "/></g></g></g><g fill="#000000" fill-opacity="1"><g transform="translate(150.519263, 270.276103)"><g><path d="M 0.015625 -8.609375 L 1.53125 -8.609375 L 3.390625 -3.703125 C 3.546875 -3.265625 3.6875 -2.851562 3.8125 -2.46875 C 3.945312 -2.082031 4.046875 -1.710938 4.109375 -1.359375 L 4.171875 -1.359375 C 4.234375 -1.628906 4.332031 -1.976562 4.46875 -2.40625 C 4.613281 -2.84375 4.765625 -3.28125 4.921875 -3.71875 L 6.671875 -8.609375 L 8.1875 -8.609375 L 4.484375 1.1875 C 4.171875 2 3.78125 2.644531 3.3125 3.125 C 2.84375 3.613281 2.1875 3.859375 1.34375 3.859375 C 1.09375 3.859375 0.867188 3.84375 0.671875 3.8125 C 0.484375 3.789062 0.316406 3.757812 0.171875 3.71875 L 0.171875 2.609375 C 0.296875 2.628906 0.4375 2.648438 0.59375 2.671875 C 0.757812 2.691406 0.9375 2.703125 1.125 2.703125 C 1.613281 2.703125 2.007812 2.5625 2.3125 2.28125 C 2.613281 2 2.851562 1.628906 3.03125 1.171875 L 3.484375 0.03125 Z M 0.015625 -8.609375 "/></g></g></g><g fill="#000000" fill-opacity="1"><g transform="translate(159.861741, 270.276103)"><g><path d="M 6.96875 -2.375 C 6.96875 -1.539062 6.65625 -0.910156 6.03125 -0.484375 C 5.414062 -0.0546875 4.582031 0.15625 3.53125 0.15625 C 2.9375 0.15625 2.421875 0.109375 1.984375 0.015625 C 1.546875 -0.078125 1.160156 -0.210938 0.828125 -0.390625 L 0.828125 -1.671875 C 1.171875 -1.492188 1.585938 -1.332031 2.078125 -1.1875 C 2.566406 -1.050781 3.0625 -0.984375 3.5625 -0.984375 C 4.28125 -0.984375 4.800781 -1.097656 5.125 -1.328125 C 5.445312 -1.554688 5.609375 -1.863281 5.609375 -2.25 C 5.609375 -2.457031 5.546875 -2.644531 5.421875 -2.8125 C 5.304688 -2.988281 5.097656 -3.160156 4.796875 -3.328125 C 4.492188 -3.503906 4.054688 -3.703125 3.484375 -3.921875 C 2.929688 -4.128906 2.457031 -4.34375 2.0625 -4.5625 C 1.664062 -4.78125 1.359375 -5.035156 1.140625 -5.328125 C 0.921875 -5.628906 0.8125 -6.015625 0.8125 -6.484375 C 0.8125 -7.210938 1.109375 -7.773438 1.703125 -8.171875 C 2.304688 -8.566406 3.085938 -8.765625 4.046875 -8.765625 C 4.566406 -8.765625 5.054688 -8.710938 5.515625 -8.609375 C 5.972656 -8.503906 6.398438 -8.363281 6.796875 -8.1875 L 6.3125 -7.0625 C 5.945312 -7.21875 5.566406 -7.347656 5.171875 -7.453125 C 4.773438 -7.554688 4.367188 -7.609375 3.953125 -7.609375 C 3.367188 -7.609375 2.925781 -7.515625 2.625 -7.328125 C 2.320312 -7.140625 2.171875 -6.882812 2.171875 -6.5625 C 2.171875 -6.320312 2.238281 -6.117188 2.375 -5.953125 C 2.519531 -5.796875 2.753906 -5.632812 3.078125 -5.46875 C 3.398438 -5.3125 3.835938 -5.132812 4.390625 -4.9375 C 4.929688 -4.726562 5.394531 -4.515625 5.78125 -4.296875 C 6.164062 -4.085938 6.457031 -3.828125 6.65625 -3.515625 C 6.863281 -3.210938 6.96875 -2.832031 6.96875 -2.375 Z M 6.96875 -2.375 "/></g></g></g><g fill="#000000" fill-opacity="1"><g transform="translate(168.70664, 270.276103)"><g><path d="M 4.234375 -1 C 4.453125 -1 4.671875 -1.015625 4.890625 -1.046875 C 5.117188 -1.078125 5.300781 -1.117188 5.4375 -1.171875 L 5.4375 -0.09375 C 5.289062 -0.0195312 5.078125 0.0351562 4.796875 0.078125 C 4.523438 0.128906 4.257812 0.15625 4 0.15625 C 3.550781 0.15625 3.132812 0.078125 2.75 -0.078125 C 2.375 -0.234375 2.066406 -0.503906 1.828125 -0.890625 C 1.597656 -1.273438 1.484375 -1.8125 1.484375 -2.5 L 1.484375 -7.515625 L 0.25 -7.515625 L 0.25 -8.1875 L 1.5 -8.75 L 2.0625 -10.578125 L 2.890625 -10.578125 L 2.890625 -8.609375 L 5.375 -8.609375 L 5.375 -7.515625 L 2.890625 -7.515625 L 2.890625 -2.53125 C 2.890625 -2.007812 3.015625 -1.625 3.265625 -1.375 C 3.515625 -1.125 3.835938 -1 4.234375 -1 Z M 4.234375 -1 "/></g></g></g><g fill="#000000" fill-opacity="1"><g transform="translate(175.65751, 270.276103)"><g><path d="M 4.6875 -8.765625 C 5.414062 -8.765625 6.046875 -8.601562 6.578125 -8.28125 C 7.117188 -7.96875 7.53125 -7.519531 7.8125 -6.9375 C 8.09375 -6.351562 8.234375 -5.671875 8.234375 -4.890625 L 8.234375 -4.03125 L 2.34375 -4.03125 C 2.363281 -3.050781 2.613281 -2.304688 3.09375 -1.796875 C 3.570312 -1.296875 4.238281 -1.046875 5.09375 -1.046875 C 5.632812 -1.046875 6.117188 -1.09375 6.546875 -1.1875 C 6.972656 -1.289062 7.410156 -1.441406 7.859375 -1.640625 L 7.859375 -0.40625 C 7.421875 -0.207031 6.984375 -0.0664062 6.546875 0.015625 C 6.117188 0.109375 5.613281 0.15625 5.03125 0.15625 C 4.207031 0.15625 3.484375 -0.00390625 2.859375 -0.328125 C 2.234375 -0.660156 1.75 -1.15625 1.40625 -1.8125 C 1.0625 -2.46875 0.890625 -3.273438 0.890625 -4.234375 C 0.890625 -5.179688 1.046875 -5.988281 1.359375 -6.65625 C 1.671875 -7.332031 2.113281 -7.851562 2.6875 -8.21875 C 3.257812 -8.582031 3.925781 -8.765625 4.6875 -8.765625 Z M 4.671875 -7.609375 C 3.992188 -7.609375 3.457031 -7.390625 3.0625 -6.953125 C 2.675781 -6.523438 2.445312 -5.925781 2.375 -5.15625 L 6.765625 -5.15625 C 6.753906 -5.882812 6.582031 -6.472656 6.25 -6.921875 C 5.914062 -7.378906 5.390625 -7.609375 4.671875 -7.609375 Z M 4.671875 -7.609375 "/></g></g></g><g fill="#000000" fill-opacity="1"><g transform="translate(185.866749, 270.276103)"><g><path d="M 10.8125 -8.765625 C 11.78125 -8.765625 12.503906 -8.515625 12.984375 -8.015625 C 13.472656 -7.515625 13.71875 -6.710938 13.71875 -5.609375 L 13.71875 0 L 12.3125 0 L 12.3125 -5.546875 C 12.3125 -6.898438 11.726562 -7.578125 10.5625 -7.578125 C 9.726562 -7.578125 9.128906 -7.335938 8.765625 -6.859375 C 8.410156 -6.378906 8.234375 -5.675781 8.234375 -4.75 L 8.234375 0 L 6.84375 0 L 6.84375 -5.546875 C 6.84375 -6.898438 6.253906 -7.578125 5.078125 -7.578125 C 4.210938 -7.578125 3.613281 -7.304688 3.28125 -6.765625 C 2.945312 -6.234375 2.78125 -5.46875 2.78125 -4.46875 L 2.78125 0 L 1.359375 0 L 1.359375 -8.609375 L 2.5 -8.609375 L 2.71875 -7.4375 L 2.796875 -7.4375 C 3.066406 -7.882812 3.425781 -8.21875 3.875 -8.4375 C 4.332031 -8.65625 4.816406 -8.765625 5.328125 -8.765625 C 6.679688 -8.765625 7.5625 -8.285156 7.96875 -7.328125 L 8.046875 -7.328125 C 8.335938 -7.816406 8.726562 -8.175781 9.21875 -8.40625 C 9.707031 -8.644531 10.238281 -8.765625 10.8125 -8.765625 Z M 10.8125 -8.765625 "/></g></g></g><g fill="#000000" fill-opacity="1"><g transform="translate(202.030948, 270.276103)"><g/></g></g><g fill="#000000" fill-opacity="1"><g transform="translate(204.792477, 270.276103)"><g><path d="M 4.8125 0.15625 C 4.039062 0.15625 3.359375 0.00390625 2.765625 -0.296875 C 2.179688 -0.609375 1.722656 -1.09375 1.390625 -1.75 C 1.054688 -2.40625 0.890625 -3.238281 0.890625 -4.25 C 0.890625 -5.3125 1.0625 -6.175781 1.40625 -6.84375 C 1.75 -7.507812 2.226562 -7.992188 2.84375 -8.296875 C 3.457031 -8.609375 4.148438 -8.765625 4.921875 -8.765625 C 5.347656 -8.765625 5.765625 -8.71875 6.171875 -8.625 C 6.585938 -8.539062 6.925781 -8.429688 7.1875 -8.296875 L 6.75 -7.125 C 6.488281 -7.226562 6.1875 -7.320312 5.84375 -7.40625 C 5.5 -7.488281 5.179688 -7.53125 4.890625 -7.53125 C 3.191406 -7.53125 2.34375 -6.441406 2.34375 -4.265625 C 2.34375 -3.234375 2.546875 -2.441406 2.953125 -1.890625 C 3.367188 -1.335938 3.984375 -1.0625 4.796875 -1.0625 C 5.265625 -1.0625 5.675781 -1.109375 6.03125 -1.203125 C 6.394531 -1.296875 6.726562 -1.414062 7.03125 -1.5625 L 7.03125 -0.3125 C 6.75 -0.15625 6.429688 -0.0390625 6.078125 0.03125 C 5.734375 0.113281 5.3125 0.15625 4.8125 0.15625 Z M 4.8125 0.15625 "/></g></g></g><g fill="#000000" fill-opacity="1"><g transform="translate(213.653431, 270.276103)"><g><path d="M 4.6875 -8.765625 C 5.414062 -8.765625 6.046875 -8.601562 6.578125 -8.28125 C 7.117188 -7.96875 7.53125 -7.519531 7.8125 -6.9375 C 8.09375 -6.351562 8.234375 -5.671875 8.234375 -4.890625 L 8.234375 -4.03125 L 2.34375 -4.03125 C 2.363281 -3.050781 2.613281 -2.304688 3.09375 -1.796875 C 3.570312 -1.296875 4.238281 -1.046875 5.09375 -1.046875 C 5.632812 -1.046875 6.117188 -1.09375 6.546875 -1.1875 C 6.972656 -1.289062 7.410156 -1.441406 7.859375 -1.640625 L 7.859375 -0.40625 C 7.421875 -0.207031 6.984375 -0.0664062 6.546875 0.015625 C 6.117188 0.109375 5.613281 0.15625 5.03125 0.15625 C 4.207031 0.15625 3.484375 -0.00390625 2.859375 -0.328125 C 2.234375 -0.660156 1.75 -1.15625 1.40625 -1.8125 C 1.0625 -2.46875 0.890625 -3.273438 0.890625 -4.234375 C 0.890625 -5.179688 1.046875 -5.988281 1.359375 -6.65625 C 1.671875 -7.332031 2.113281 -7.851562 2.6875 -8.21875 C 3.257812 -8.582031 3.925781 -8.765625 4.6875 -8.765625 Z M 4.671875 -7.609375 C 3.992188 -7.609375 3.457031 -7.390625 3.0625 -6.953125 C 2.675781 -6.523438 2.445312 -5.925781 2.375 -5.15625 L 6.765625 -5.15625 C 6.753906 -5.882812 6.582031 -6.472656 6.25 -6.921875 C 5.914062 -7.378906 5.390625 -7.609375 4.671875 -7.609375 Z M 4.671875 -7.609375 "/></g></g></g><g fill="#000000" fill-opacity="1"><g transform="translate(223.86267, 270.276103)"><g><path d="M 2.78125 0 L 1.359375 0 L 1.359375 -12.203125 L 2.78125 -12.203125 Z M 2.78125 0 "/></g></g></g><g fill="#000000" fill-opacity="1"><g transform="translate(229.160277, 270.276103)"><g><path d="M 2.78125 0 L 1.359375 0 L 1.359375 -12.203125 L 2.78125 -12.203125 Z M 2.78125 0 "/></g></g></g><g fill="#000000" fill-opacity="1"><g transform="translate(100.624446, 243.958695)"><g><path d="M 23.296875 -5.921875 C 23.773438 -5.921875 24.097656 -5.8125 24.265625 -5.59375 C 24.429688 -5.382812 24.515625 -5.082031 24.515625 -4.6875 L 24.515625 -1.21875 C 24.515625 -0.851562 24.429688 -0.554688 24.265625 -0.328125 C 24.097656 -0.109375 23.773438 0 23.296875 0 L 4.359375 0 C 3.878906 0 3.550781 -0.109375 3.375 -0.328125 C 3.207031 -0.554688 3.125 -0.851562 3.125 -1.21875 L 3.125 -26.59375 C 3.125 -26.988281 3.207031 -27.289062 3.375 -27.5 C 3.550781 -27.71875 3.878906 -27.828125 4.359375 -27.828125 L 22.578125 -27.828125 C 23.054688 -27.828125 23.378906 -27.71875 23.546875 -27.5 C 23.710938 -27.289062 23.796875 -26.988281 23.796875 -26.59375 L 23.796875 -23.078125 C 23.796875 -22.710938 23.710938 -22.414062 23.546875 -22.1875 C 23.378906 -21.96875 23.054688 -21.859375 22.578125 -21.859375 L 9.8125 -21.859375 L 9.8125 -17.25 L 21.140625 -17.25 C 21.617188 -17.25 21.941406 -17.140625 22.109375 -16.921875 C 22.273438 -16.710938 22.359375 -16.414062 22.359375 -16.03125 L 22.359375 -12.734375 C 22.359375 -12.359375 22.273438 -12.054688 22.109375 -11.828125 C 21.941406 -11.609375 21.617188 -11.5 21.140625 -11.5 L 9.8125 -11.5 L 9.8125 -5.921875 Z M 23.296875 -5.921875 "/></g></g></g><g fill="#000000" fill-opacity="1"><g transform="translate(125.401067, 243.958695)"><g><path d="M 21.9375 -5.921875 C 22.414062 -5.921875 22.738281 -5.8125 22.90625 -5.59375 C 23.082031 -5.382812 23.171875 -5.082031 23.171875 -4.6875 L 23.171875 -1.21875 C 23.171875 -0.851562 23.082031 -0.554688 22.90625 -0.328125 C 22.738281 -0.109375 22.414062 0 21.9375 0 L 4.359375 0 C 3.878906 0 3.550781 -0.109375 3.375 -0.328125 C 3.207031 -0.554688 3.125 -0.851562 3.125 -1.21875 L 3.125 -26.59375 C 3.125 -27.070312 3.238281 -27.394531 3.46875 -27.5625 C 3.695312 -27.738281 3.992188 -27.828125 4.359375 -27.828125 L 8.546875 -27.828125 C 8.929688 -27.828125 9.226562 -27.738281 9.4375 -27.5625 C 9.65625 -27.394531 9.765625 -27.070312 9.765625 -26.59375 L 9.765625 -5.921875 Z M 21.9375 -5.921875 "/></g></g></g><g fill="#000000" fill-opacity="1"><g transform="translate(148.275039, 243.958695)"><g><path d="M 23.296875 -5.921875 C 23.773438 -5.921875 24.097656 -5.8125 24.265625 -5.59375 C 24.429688 -5.382812 24.515625 -5.082031 24.515625 -4.6875 L 24.515625 -1.21875 C 24.515625 -0.851562 24.429688 -0.554688 24.265625 -0.328125 C 24.097656 -0.109375 23.773438 0 23.296875 0 L 4.359375 0 C 3.878906 0 3.550781 -0.109375 3.375 -0.328125 C 3.207031 -0.554688 3.125 -0.851562 3.125 -1.21875 L 3.125 -26.59375 C 3.125 -26.988281 3.207031 -27.289062 3.375 -27.5 C 3.550781 -27.71875 3.878906 -27.828125 4.359375 -27.828125 L 22.578125 -27.828125 C 23.054688 -27.828125 23.378906 -27.71875 23.546875 -27.5 C 23.710938 -27.289062 23.796875 -26.988281 23.796875 -26.59375 L 23.796875 -23.078125 C 23.796875 -22.710938 23.710938 -22.414062 23.546875 -22.1875 C 23.378906 -21.96875 23.054688 -21.859375 22.578125 -21.859375 L 9.8125 -21.859375 L 9.8125 -17.25 L 21.140625 -17.25 C 21.617188 -17.25 21.941406 -17.140625 22.109375 -16.921875 C 22.273438 -16.710938 22.359375 -16.414062 22.359375 -16.03125 L 22.359375 -12.734375 C 22.359375 -12.359375 22.273438 -12.054688 22.109375 -11.828125 C 21.941406 -11.609375 21.617188 -11.5 21.140625 -11.5 L 9.8125 -11.5 L 9.8125 -5.921875 Z M 23.296875 -5.921875 "/></g></g></g><g fill="#000000" fill-opacity="1"><g transform="translate(173.051662, 243.958695)"><g><path d="M 25.328125 -27.828125 C 25.722656 -27.828125 25.972656 -27.691406 26.078125 -27.421875 C 26.191406 -27.148438 26.195312 -26.875 26.09375 -26.59375 L 17.046875 -1.265625 C 16.785156 -0.734375 16.550781 -0.390625 16.34375 -0.234375 C 16.132812 -0.078125 15.789062 0 15.3125 0 L 11.25 0 C 10.789062 0 10.445312 -0.078125 10.21875 -0.234375 C 10 -0.390625 9.765625 -0.734375 9.515625 -1.265625 L 0.421875 -26.59375 C 0.304688 -26.875 0.304688 -27.148438 0.421875 -27.421875 C 0.535156 -27.691406 0.789062 -27.828125 1.1875 -27.828125 L 5.875 -27.828125 C 6.4375 -27.828125 6.820312 -27.726562 7.03125 -27.53125 C 7.25 -27.332031 7.441406 -26.976562 7.609375 -26.46875 L 13.359375 -8.96875 L 19.0625 -26.46875 C 19.238281 -26.976562 19.4375 -27.332031 19.65625 -27.53125 C 19.882812 -27.726562 20.28125 -27.828125 20.84375 -27.828125 Z M 25.328125 -27.828125 "/></g></g></g><g fill="#000000" fill-opacity="1"><g transform="translate(198.208818, 243.958695)"><g><path d="M 23.296875 -5.921875 C 23.773438 -5.921875 24.097656 -5.8125 24.265625 -5.59375 C 24.429688 -5.382812 24.515625 -5.082031 24.515625 -4.6875 L 24.515625 -1.21875 C 24.515625 -0.851562 24.429688 -0.554688 24.265625 -0.328125 C 24.097656 -0.109375 23.773438 0 23.296875 0 L 4.359375 0 C 3.878906 0 3.550781 -0.109375 3.375 -0.328125 C 3.207031 -0.554688 3.125 -0.851562 3.125 -1.21875 L 3.125 -26.59375 C 3.125 -26.988281 3.207031 -27.289062 3.375 -27.5 C 3.550781 -27.71875 3.878906 -27.828125 4.359375 -27.828125 L 22.578125 -27.828125 C 23.054688 -27.828125 23.378906 -27.71875 23.546875 -27.5 C 23.710938 -27.289062 23.796875 -26.988281 23.796875 -26.59375 L 23.796875 -23.078125 C 23.796875 -22.710938 23.710938 -22.414062 23.546875 -22.1875 C 23.378906 -21.96875 23.054688 -21.859375 22.578125 -21.859375 L 9.8125 -21.859375 L 9.8125 -17.25 L 21.140625 -17.25 C 21.617188 -17.25 21.941406 -17.140625 22.109375 -16.921875 C 22.273438 -16.710938 22.359375 -16.414062 22.359375 -16.03125 L 22.359375 -12.734375 C 22.359375 -12.359375 22.273438 -12.054688 22.109375 -11.828125 C 21.941406 -11.609375 21.617188 -11.5 21.140625 -11.5 L 9.8125 -11.5 L 9.8125 -5.921875 Z M 23.296875 -5.921875 "/></g></g></g><g fill="#000000" fill-opacity="1"><g transform="translate(222.985435, 243.958695)"><g><path d="M 24.484375 -27.828125 C 24.878906 -27.828125 25.179688 -27.738281 25.390625 -27.5625 C 25.597656 -27.394531 25.703125 -27.070312 25.703125 -26.59375 L 25.703125 -1.21875 C 25.703125 -0.851562 25.617188 -0.554688 25.453125 -0.328125 C 25.285156 -0.109375 24.960938 0 24.484375 0 L 20.640625 0 C 20.097656 0 19.710938 -0.128906 19.484375 -0.390625 C 19.265625 -0.660156 19.015625 -1.007812 18.734375 -1.4375 L 9.765625 -15.9375 L 9.765625 -1.21875 C 9.765625 -0.738281 9.65625 -0.414062 9.4375 -0.25 C 9.226562 -0.0820312 8.929688 0 8.546875 0 L 4.359375 0 C 3.992188 0 3.695312 -0.0820312 3.46875 -0.25 C 3.238281 -0.414062 3.125 -0.738281 3.125 -1.21875 L 3.125 -26.59375 C 3.125 -26.988281 3.207031 -27.289062 3.375 -27.5 C 3.550781 -27.71875 3.878906 -27.828125 4.359375 -27.828125 L 8.328125 -27.828125 C 8.859375 -27.828125 9.238281 -27.691406 9.46875 -27.421875 C 9.695312 -27.148438 9.953125 -26.804688 10.234375 -26.390625 L 19.203125 -11.921875 L 19.203125 -26.59375 C 19.203125 -27.070312 19.3125 -27.394531 19.53125 -27.5625 C 19.757812 -27.738281 20.054688 -27.828125 20.421875 -27.828125 Z M 24.484375 -27.828125 "/></g></g></g><g fill="#000000" fill-opacity="1"><g transform="translate(250.087527, 243.958695)"><g><path d="M 21.9375 -27.828125 C 22.414062 -27.828125 22.738281 -27.71875 22.90625 -27.5 C 23.082031 -27.289062 23.171875 -26.988281 23.171875 -26.59375 L 23.171875 -23.078125 C 23.171875 -22.710938 23.082031 -22.414062 22.90625 -22.1875 C 22.738281 -21.96875 22.414062 -21.859375 21.9375 -21.859375 L 15.46875 -21.859375 L 15.46875 -1.21875 C 15.46875 -0.738281 15.363281 -0.414062 15.15625 -0.25 C 14.945312 -0.0820312 14.644531 0 14.25 0 L 10.0625 0 C 9.695312 0 9.398438 -0.0820312 9.171875 -0.25 C 8.953125 -0.414062 8.84375 -0.738281 8.84375 -1.21875 L 8.84375 -21.859375 L 2.328125 -21.859375 C 1.847656 -21.859375 1.519531 -21.96875 1.34375 -22.1875 C 1.175781 -22.414062 1.09375 -22.710938 1.09375 -23.078125 L 1.09375 -26.59375 C 1.09375 -26.988281 1.175781 -27.289062 1.34375 -27.5 C 1.519531 -27.71875 1.847656 -27.828125 2.328125 -27.828125 Z M 21.9375 -27.828125 "/></g></g></g></svg>